<?xml version="1.0" encoding="UTF-8" standalone="no"?><!DOCTYPE svg PUBLIC "-//W3C//DTD SVG 1.1//EN" "http://www.w3.org/Graphics/SVG/1.1/DTD/svg11.dtd"><svg width="100%" height="100%" viewBox="0 0 421 550" version="1.1" xmlns="http://www.w3.org/2000/svg" xmlns:xlink="http://www.w3.org/1999/xlink" xml:space="preserve" xmlns:serif="http://www.serif.com/" style="fill-rule:evenodd;clip-rule:evenodd;stroke-linejoin:round;stroke-miterlimit:2;"><g><path d="M9.583,108.342l85.553,39.376l-0,50.811l231.247,0l-0,-50.811l35.361,-16.271l-0,89.999c-5.738,0.821 -10.163,5.775 -10.163,11.73c0,5.183 3.35,9.676 8.164,11.236l-8.692,57.382c-0.266,1.741 0.238,3.507 1.395,4.846c1.152,1.331 2.819,2.095 4.569,2.095l31.699,0c1.75,0 3.417,-0.764 4.579,-2.103c1.143,-1.339 1.647,-3.097 1.383,-4.838l-8.692,-57.382c4.816,-1.56 8.162,-6.053 8.162,-11.236c0,-5.955 -4.425,-10.908 -10.162,-11.73l-0,-100.241l27.957,-12.862c3.155,-1.462 5.193,-4.649 5.193,-8.116c0,-3.474 -2.038,-6.662 -5.194,-8.107l-182.291,-83.913c-5.969,-2.743 -12.325,-4.139 -18.892,-4.139c-6.566,-0 -12.92,1.396 -18.885,4.139l-182.289,83.912c-3.158,1.454 -5.2,4.633 -5.2,8.107c0,3.467 2.04,6.654 5.198,8.116Z" style="fill:none;fill-rule:nonzero;stroke:#fff;stroke-width:4.17px;"/><path d="M374.233,441.6l-81.666,-33.364c-12.996,-5.971 -21.393,-19.073 -21.393,-33.382l0,-12.024c0,-5.528 0.912,-10.966 2.466,-15.713c0.448,-0.6 44.827,-60.437 50.995,-119.42l0.193,-1.857l-228.139,0l0.194,1.857c6.181,58.983 50.546,118.82 50.752,118.96c1.801,5.216 2.715,10.654 2.715,16.173l-0,12.024c-0,14.301 -8.401,27.401 -21.334,33.349l-81.781,33.43c-19.474,8.945 -33.391,26.867 -37.25,48.116l-4.33,55.985l410.215,0l-4.347,-56.157c-3.858,-21.085 -17.774,-39.008 -37.29,-47.977Z" style="fill:none;fill-rule:nonzero;stroke:#fff;stroke-width:4.17px;"/></g></svg>