<?xml version="1.0" encoding="UTF-8" standalone="no"?><!DOCTYPE svg PUBLIC "-//W3C//DTD SVG 1.1//EN" "http://www.w3.org/Graphics/SVG/1.1/DTD/svg11.dtd"><svg width="100%" height="100%" viewBox="0 0 550 550" version="1.1" xmlns="http://www.w3.org/2000/svg" xmlns:xlink="http://www.w3.org/1999/xlink" xml:space="preserve" xmlns:serif="http://www.serif.com/" style="fill-rule:evenodd;clip-rule:evenodd;stroke-linejoin:round;stroke-miterlimit:2;"><g><path d="M221.678,517.452c16.077,12.541 34.566,22.135 53.958,27.946c19.392,-5.811 37.882,-15.404 53.959,-27.946c-19.116,-5.82 -37.236,-14.41 -53.959,-25.625c-16.722,11.215 -34.843,19.805 -53.958,25.625Z" style="fill:none;fill-rule:nonzero;stroke:#fff;stroke-width:4.17px;"/><path d="M65.731,408.154c2.496,20.248 8.785,40.091 18.398,57.908c17.826,9.622 37.669,15.912 57.918,18.407c-9.439,-17.661 -16.16,-36.528 -20.055,-56.261c-19.733,-3.895 -38.599,-10.616 -56.261,-20.054Z" style="fill:none;fill-rule:nonzero;stroke:#fff;stroke-width:4.17px;"/><path d="M409.225,484.469c20.249,-2.495 40.092,-8.785 57.918,-18.407c9.613,-17.817 15.902,-37.66 18.398,-57.908c-17.662,9.438 -36.529,16.159 -56.261,20.054c-3.895,19.733 -10.616,38.6 -20.055,56.261Z" style="fill:none;fill-rule:nonzero;stroke:#fff;stroke-width:4.17px;"/><path d="M213.068,425.648c-15.774,4.06 -32.025,6.225 -48.387,6.454c5.082,18.251 13.471,35.838 24.447,51.29c18.693,-3.14 37.071,-9.651 53.59,-18.978c-11.391,-11.695 -21.353,-24.714 -29.65,-38.766Z" style="fill:none;fill-rule:nonzero;stroke:#fff;stroke-width:4.17px;"/><path d="M308.554,464.414c16.52,9.327 34.889,15.838 53.59,18.978c10.976,-15.452 19.366,-33.038 24.458,-51.29c-16.372,-0.229 -32.615,-2.394 -48.397,-6.454c-8.297,14.052 -18.252,27.071 -29.651,38.766Z" style="fill:none;fill-rule:nonzero;stroke:#fff;stroke-width:4.17px;"/><path d="M251.98,411.266c6.207,9.53 13.398,18.379 21.391,26.39c0.736,0.736 1.492,1.454 2.265,2.21c0.774,-0.756 1.529,-1.474 2.266,-2.21c7.992,-8.011 15.184,-16.86 21.399,-26.39c-8.158,-4.015 -16.105,-8.582 -23.665,-13.656c-7.56,5.073 -15.506,9.641 -23.656,13.656Z" style="fill:none;fill-rule:nonzero;stroke:#fff;stroke-width:4.17px;"/><path d="M188.612,361.588c-8.922,-1.768 -17.761,-4.152 -26.362,-7.09c-2.348,11.115 -3.536,22.459 -3.536,33.793c0,1.031 0.019,2.081 0.029,3.149c1.086,0.028 2.136,0.047 3.167,0.047c11.336,-0 22.679,-1.188 33.793,-3.526c-2.938,-8.611 -5.324,-17.45 -7.091,-26.373Z" style="fill:none;fill-rule:nonzero;stroke:#fff;stroke-width:4.17px;"/><path d="M362.66,361.588c-1.767,8.923 -4.152,17.762 -7.089,26.372c11.114,2.338 22.458,3.526 33.793,3.526c1.03,-0 2.081,-0.019 3.148,-0.047c0.029,-1.068 0.047,-2.118 0.047,-3.149c0,-11.335 -1.187,-22.678 -3.536,-33.793c-8.601,2.939 -17.44,5.323 -26.363,7.091Z" style="fill:none;fill-rule:nonzero;stroke:#fff;stroke-width:4.17px;"/><path d="M426.72,337.133c4.06,15.773 6.224,32.024 6.455,48.378c18.25,-5.074 35.837,-13.462 51.289,-24.439c-3.14,-18.692 -9.659,-37.07 -18.978,-53.59c-11.694,11.391 -24.714,21.353 -38.766,29.651Z" style="fill:none;fill-rule:nonzero;stroke:#fff;stroke-width:4.17px;"/><path d="M118.115,385.511c0.212,-16.354 2.376,-32.606 6.437,-48.378c-14.052,-8.297 -27.072,-18.26 -38.765,-29.65c-9.319,16.52 -15.838,34.898 -18.978,53.59c15.451,10.976 33.038,19.364 51.306,24.438Z" style="fill:none;fill-rule:nonzero;stroke:#fff;stroke-width:4.17px;"/><path d="M231.024,379.838c6.067,-2.937 11.998,-6.095 17.835,-9.383c-3.259,-3.343 -6.501,-6.758 -9.659,-10.285c-4.723,0.22 -9.429,0.368 -14.06,0.46c1.768,6.483 3.747,12.892 5.884,19.208Z" style="fill:none;fill-rule:nonzero;stroke:#fff;stroke-width:4.17px;"/><path d="M302.413,370.455c5.828,3.288 11.796,6.446 17.836,9.383c2.135,-6.316 4.115,-12.725 5.884,-19.208c-4.632,-0.091 -9.337,-0.239 -14.034,-0.46c-3.186,3.527 -6.427,6.943 -9.686,10.285Z" style="fill:none;fill-rule:nonzero;stroke:#fff;stroke-width:4.17px;"/><path d="M4.802,274.564c5.81,19.392 15.395,37.882 27.947,53.959c5.82,-19.125 14.41,-37.229 25.625,-53.959c-11.215,-16.73 -19.805,-34.834 -25.625,-53.959c-12.552,16.077 -22.137,34.568 -27.947,53.959Z" style="fill:none;fill-rule:nonzero;stroke:#fff;stroke-width:4.17px;"/><path d="M518.523,220.605c-5.82,19.125 -14.42,37.237 -25.625,53.959c11.205,16.721 19.807,34.833 25.625,53.959c12.552,-16.077 22.137,-34.567 27.947,-53.959c-5.81,-19.391 -15.395,-37.882 -27.947,-53.959Z" style="fill:none;fill-rule:nonzero;stroke:#fff;stroke-width:4.17px;"/><path d="M170.361,319.176c6.307,2.136 12.725,4.116 19.208,5.885c0.092,-4.632 0.239,-9.338 0.46,-14.06c-3.471,-3.15 -6.906,-6.372 -10.285,-9.66c-3.287,5.828 -6.445,11.794 -9.383,17.835Z" style="fill:none;fill-rule:nonzero;stroke:#fff;stroke-width:4.17px;"/><path d="M361.693,325.061c6.465,-1.768 12.892,-3.749 19.209,-5.885c-2.947,-6.041 -6.096,-12.007 -9.411,-17.836c-3.343,3.26 -6.777,6.5 -10.221,9.659c0.248,4.724 0.36,9.43 0.423,14.062Z" style="fill:none;fill-rule:nonzero;stroke:#fff;stroke-width:4.17px;"/><path d="M322.983,227.217c-15.046,-8.113 -30.967,-14.705 -47.347,-19.622c-16.381,4.917 -32.301,11.509 -47.346,19.622c-8.112,15.046 -14.715,30.966 -19.623,47.347c4.908,16.381 11.511,32.301 19.623,47.347c15.046,8.112 30.966,14.706 47.346,19.622c16.381,-4.916 32.301,-11.51 47.347,-19.622c8.113,-15.046 14.706,-30.966 19.623,-47.347c-4.917,-16.381 -11.51,-32.302 -19.623,-47.347Z" style="fill:none;fill-rule:nonzero;stroke:#fff;stroke-width:4.17px;"/><path d="M398.681,274.564c5.074,7.56 9.641,15.497 13.656,23.664c9.53,-6.215 18.398,-13.407 26.39,-21.4c0.736,-0.736 1.454,-1.492 2.21,-2.264c-0.756,-0.774 -1.474,-1.529 -2.21,-2.265c-7.992,-7.993 -16.86,-15.185 -26.39,-21.4c-4.015,8.168 -8.582,16.106 -13.656,23.665Z" style="fill:none;fill-rule:nonzero;stroke:#fff;stroke-width:4.17px;"/><path d="M112.545,272.299c-0.718,0.736 -1.454,1.491 -2.21,2.265c0.756,0.773 1.473,1.528 2.21,2.264c7.992,7.993 16.86,15.185 26.39,21.4c4.015,-8.167 8.581,-16.104 13.655,-23.664c-5.074,-7.559 -9.64,-15.497 -13.655,-23.665c-9.531,6.216 -18.398,13.407 -26.39,21.4Z" style="fill:none;fill-rule:nonzero;stroke:#fff;stroke-width:4.17px;"/><path d="M380.902,229.951c-6.317,-2.137 -12.744,-4.116 -19.209,-5.884c-0.063,4.633 -0.175,9.338 -0.423,14.061c3.444,3.158 6.879,6.4 10.221,9.659c3.315,-5.828 6.464,-11.795 9.411,-17.836Z" style="fill:none;fill-rule:nonzero;stroke:#fff;stroke-width:4.17px;"/><path d="M189.569,224.067c-6.483,1.768 -12.901,3.748 -19.208,5.884c2.937,6.04 6.096,12.007 9.383,17.836c3.379,-3.288 6.814,-6.51 10.285,-9.659c-0.22,-4.723 -0.368,-9.428 -0.46,-14.061Z" style="fill:none;fill-rule:nonzero;stroke:#fff;stroke-width:4.17px;"/><path d="M433.175,163.617c-0.231,16.354 -2.395,32.606 -6.455,48.38c14.052,8.296 27.072,18.259 38.765,29.649c9.319,-16.52 15.838,-34.899 18.978,-53.59c-15.451,-10.978 -33.038,-19.365 -51.288,-24.439Z" style="fill:none;fill-rule:nonzero;stroke:#fff;stroke-width:4.17px;"/><path d="M118.115,163.617c-18.268,5.074 -35.855,13.461 -51.307,24.439c3.14,18.691 9.659,37.07 18.978,53.59c11.693,-11.399 24.713,-21.353 38.765,-29.649c-4.06,-15.775 -6.224,-32.026 -6.436,-48.38Z" style="fill:none;fill-rule:nonzero;stroke:#fff;stroke-width:4.17px;"/><path d="M389.364,157.641c-11.335,-0 -22.679,1.188 -33.793,3.526c2.937,8.61 5.322,17.45 7.089,26.371c8.923,1.768 17.763,4.153 26.362,7.091c2.349,-11.114 3.536,-22.459 3.536,-33.793c-0,-1.032 -0.018,-2.081 -0.047,-3.15c-1.066,-0.026 -2.117,-0.045 -3.147,-0.045Z" style="fill:none;fill-rule:nonzero;stroke:#fff;stroke-width:4.17px;"/><path d="M188.612,187.539c1.767,-8.922 4.153,-17.761 7.09,-26.371c-11.114,-2.338 -22.458,-3.526 -33.793,-3.526c-1.031,-0 -2.081,0.019 -3.167,0.046c-0.01,1.069 -0.029,2.118 -0.029,3.15c0,11.335 1.188,22.679 3.536,33.793c8.601,-2.939 17.44,-5.324 26.363,-7.092Z" style="fill:none;fill-rule:nonzero;stroke:#fff;stroke-width:4.17px;"/><path d="M320.249,169.29c-6.04,2.937 -12.008,6.096 -17.836,9.383c3.259,3.343 6.5,6.758 9.686,10.285c4.697,-0.22 9.402,-0.368 14.034,-0.46c-1.768,-6.483 -3.749,-12.892 -5.884,-19.208Z" style="fill:none;fill-rule:nonzero;stroke:#fff;stroke-width:4.17px;"/><path d="M248.859,178.673c-5.837,-3.287 -11.768,-6.445 -17.835,-9.383c-2.137,6.316 -4.116,12.725 -5.884,19.208c4.632,0.091 9.337,0.239 14.06,0.46c3.158,-3.527 6.4,-6.943 9.659,-10.285Z" style="fill:none;fill-rule:nonzero;stroke:#fff;stroke-width:4.17px;"/><path d="M299.3,137.863c-6.215,-9.531 -13.407,-18.38 -21.399,-26.391c-0.737,-0.736 -1.492,-1.473 -2.266,-2.209c-0.773,0.736 -1.529,1.473 -2.265,2.209c-7.993,8.011 -15.184,16.86 -21.391,26.391c8.15,4.013 16.096,8.582 23.656,13.654c7.561,-5.072 15.507,-9.64 23.665,-13.654Z" style="fill:none;fill-rule:nonzero;stroke:#fff;stroke-width:4.17px;"/><path d="M142.047,64.659c-20.249,2.495 -40.092,8.784 -57.918,18.406c-9.613,17.818 -15.902,37.661 -18.398,57.909c17.662,-9.437 36.528,-16.159 56.261,-20.054c3.895,-19.714 10.616,-38.601 20.055,-56.261Z" style="fill:none;fill-rule:nonzero;stroke:#fff;stroke-width:4.17px;"/><path d="M409.225,64.659c9.439,17.66 16.16,36.528 20.055,56.261c19.732,3.895 38.599,10.617 56.261,20.054c-2.496,-20.248 -8.785,-40.091 -18.398,-57.909c-17.826,-9.622 -37.669,-15.91 -57.918,-18.406Z" style="fill:none;fill-rule:nonzero;stroke:#fff;stroke-width:4.17px;"/><path d="M338.204,123.48c15.773,-4.061 32.026,-6.225 48.397,-6.437c-5.092,-18.268 -13.481,-35.856 -24.458,-51.307c-18.701,3.141 -37.07,9.651 -53.59,18.978c11.392,11.695 21.355,24.714 29.651,38.766Z" style="fill:none;fill-rule:nonzero;stroke:#fff;stroke-width:4.17px;"/><path d="M242.717,84.714c-16.519,-9.327 -34.897,-15.837 -53.59,-18.978c-10.975,15.451 -19.365,33.039 -24.447,51.289c16.362,0.23 32.614,2.394 48.387,6.455c8.298,-14.052 18.26,-27.071 29.65,-38.766Z" style="fill:none;fill-rule:nonzero;stroke:#fff;stroke-width:4.17px;"/><path d="M329.594,31.676c-16.077,-12.54 -34.566,-22.136 -53.958,-27.945c-19.392,5.81 -37.881,15.405 -53.958,27.946c19.115,5.819 37.236,14.411 53.958,25.625c16.722,-11.215 34.842,-19.807 53.958,-25.626Z" style="fill:none;fill-rule:nonzero;stroke:#fff;stroke-width:4.17px;"/></g></svg>