<?xml version="1.0" encoding="UTF-8" standalone="no"?><!DOCTYPE svg PUBLIC "-//W3C//DTD SVG 1.1//EN" "http://www.w3.org/Graphics/SVG/1.1/DTD/svg11.dtd"><svg width="100%" height="100%" viewBox="0 0 263 550" version="1.1" xmlns="http://www.w3.org/2000/svg" xmlns:xlink="http://www.w3.org/1999/xlink" xml:space="preserve" xmlns:serif="http://www.serif.com/" style="fill-rule:evenodd;clip-rule:evenodd;stroke-linejoin:round;stroke-miterlimit:2;"><g><g><path d="M165.352,335.286c0,-38.015 19.077,-84.047 19.077,-84.047l-114.039,0c0,0 19.077,46.032 19.077,84.047c-0,31.726 -14.291,37.463 -32.245,55.433c-17.962,17.962 -29.08,42.777 -29.08,70.197c0,17.392 4.485,33.735 12.355,47.952c7.854,14.209 19.101,26.288 32.652,35.15l108.521,0c13.558,-8.862 24.798,-20.941 32.668,-35.15c7.863,-14.219 12.339,-30.561 12.339,-47.952c-0,-27.42 -11.102,-52.234 -29.071,-70.197c-17.962,-17.97 -32.254,-22.121 -32.254,-55.433Z" style="fill:none;fill-rule:nonzero;stroke:#fff;stroke-width:4.17px;"/><path d="M105.614,241.546l18.231,0c-4.323,-28.795 -12.143,-62.951 -26.06,-98.102l-16.782,6.656c12.867,32.465 20.33,64.304 24.611,91.446Z" style="fill:none;fill-rule:nonzero;stroke:#fff;stroke-width:4.17px;"/><path d="M150.182,187.896c-6.291,9.896 -12.672,21.779 -17.67,35.297c-2.157,5.803 -4.061,11.94 -5.534,18.353l18.638,0c1.115,-4.151 2.402,-8.187 3.857,-12.094c6.665,-18.083 16.327,-33.31 24.335,-43.932c3.996,-5.33 7.593,-9.481 10.109,-12.281c1.261,-1.415 2.294,-2.466 2.946,-3.158c0.358,-0.333 0.611,-0.609 0.757,-0.747l0.204,-0.205l0.007,0l0,-0.007l-1.431,-1.498l0.342,0.366l-11.403,-11.906c-0.36,0.365 -12.551,12.092 -25.157,31.812Z" style="fill:none;fill-rule:nonzero;stroke:#fff;stroke-width:4.17px;"/><path d="M93.064,218.749c-5.477,-17.351 -33.986,-44.062 -59.932,-25.669c6.519,25.913 31.504,43.037 59.932,25.669Z" style="fill:none;fill-rule:nonzero;stroke:#fff;stroke-width:4.17px;"/><path d="M163.805,217.659c15.406,12.478 37.853,11.54 47.017,-11.411c-10.97,-7.87 -39.79,-11.059 -47.017,11.411Z" style="fill:none;fill-rule:nonzero;stroke:#fff;stroke-width:4.17px;"/><path d="M140.977,183.111c6.275,0 11.378,-5.095 11.378,-11.378c0,-6.283 -5.103,-11.377 -11.378,-11.377c-6.291,-0 -11.378,5.094 -11.378,11.377c-0,6.282 5.087,11.378 11.378,11.378Z" style="fill:none;fill-rule:nonzero;stroke:#fff;stroke-width:4.17px;"/><path d="M69.161,164.822c-0,-6.283 -5.087,-11.377 -11.378,-11.377c-6.275,0 -11.377,5.095 -11.377,11.377c-0,6.284 5.103,11.379 11.377,11.379c6.291,-0 11.378,-5.095 11.378,-11.379Z" style="fill:none;fill-rule:nonzero;stroke:#fff;stroke-width:4.17px;"/><path d="M121.729,114.323c-7.52,-0 -13.624,6.096 -13.624,13.631c-0,7.529 6.104,13.633 13.624,13.633c7.537,-0 13.64,-6.104 13.64,-13.633c-0,-7.535 -6.104,-13.631 -13.64,-13.631Z" style="fill:none;fill-rule:nonzero;stroke:#fff;stroke-width:4.17px;"/><path d="M257.62,117.106c-1.612,-12.053 -11.808,-20.828 -23.611,-21.047c-3.32,-11.338 -14.462,-18.873 -26.523,-17.254c-12.061,1.612 -20.827,11.818 -21.047,23.618c-11.328,3.304 -18.865,14.455 -17.246,26.516c1.612,12.061 11.818,20.835 23.611,21.047c3.319,11.328 14.463,18.874 26.523,17.254c12.062,-1.612 20.827,-11.817 21.047,-23.619c11.329,-3.304 18.865,-14.462 17.246,-26.515Zm-42.207,20.925c-8.285,1.107 -15.895,-4.72 -17.01,-12.998c-1.106,-8.293 4.704,-15.911 12.998,-17.018c8.293,-1.106 15.895,4.713 17.017,12.998c1.099,8.285 -4.712,15.903 -13.005,17.018Z" style="fill:none;fill-rule:nonzero;stroke:#fff;stroke-width:4.17px;"/><path d="M110.066,57.271c-4.965,12.029 -0.57,26.182 10.922,33.091c11.484,6.91 26.035,4.175 34.337,-5.827c12.029,4.948 26.174,0.554 33.091,-10.93c6.894,-11.475 4.167,-26.035 -5.827,-34.345c4.941,-12.013 0.546,-26.165 -10.931,-33.076c-11.476,-6.91 -26.043,-4.183 -34.353,5.827c-12.013,-4.948 -26.174,-0.561 -33.067,10.922c-6.917,11.476 -4.175,26.044 5.828,34.338Zm21.966,-17.597c4.752,-7.886 15,-10.442 22.886,-5.68c7.885,4.744 10.434,14.983 5.681,22.869c-4.738,7.887 -14.984,10.443 -22.87,5.689c-7.902,-4.753 -10.433,-14.991 -5.697,-22.878Z" style="fill:none;fill-rule:nonzero;stroke:#fff;stroke-width:4.17px;"/><path d="M63.571,126.823c11.621,2.01 23.284,-4.696 27.142,-16.244c3.842,-11.533 -1.481,-23.903 -11.988,-29.275c2.002,-11.631 -4.704,-23.301 -16.245,-27.142c-11.549,-3.842 -23.912,1.465 -29.275,11.98c-11.639,-2.002 -23.309,4.705 -27.15,16.253c-3.85,11.541 1.465,23.903 11.971,29.274c-1.993,11.63 4.713,23.293 16.262,27.143c11.54,3.85 23.903,-1.473 29.283,-11.989Zm-29.553,-35.117c2.638,-7.935 11.215,-12.224 19.141,-9.58c7.945,2.645 12.233,11.207 9.58,19.143c-2.636,7.926 -11.199,12.224 -19.142,9.578c-7.926,-2.645 -12.215,-11.206 -9.579,-19.141Z" style="fill:none;fill-rule:nonzero;stroke:#fff;stroke-width:4.17px;"/></g></g></svg>