<?xml version="1.0" encoding="UTF-8" standalone="no"?><!DOCTYPE svg PUBLIC "-//W3C//DTD SVG 1.1//EN" "http://www.w3.org/Graphics/SVG/1.1/DTD/svg11.dtd"><svg width="100%" height="100%" viewBox="0 0 630 550" version="1.1" xmlns="http://www.w3.org/2000/svg" xmlns:xlink="http://www.w3.org/1999/xlink" xml:space="preserve" xmlns:serif="http://www.serif.com/" style="fill-rule:evenodd;clip-rule:evenodd;stroke-linejoin:round;stroke-miterlimit:2;"><g><path d="M547.29,5.134c-44.145,-6.753 -85.692,19.199 -100.201,59.727l-53.43,0l-0,45.982l49.625,-0c6.324,38.062 36.027,69.587 76.26,75.751c50.081,7.663 96.918,-26.743 104.61,-76.849c7.65,-50.108 -26.756,-96.948 -76.864,-104.611Z" style="fill:none;fill-rule:nonzero;stroke:#fff;stroke-width:4.17px;"/><path d="M201.321,374.658c0,-8.347 -6.766,-15.127 -15.127,-15.127l-65.501,-0c-8.36,-0 -15.125,6.78 -15.125,15.127c-0,8.332 6.765,15.126 15.125,15.126l65.502,-0c8.36,-0 15.126,-6.792 15.126,-15.126Z" style="fill:none;fill-rule:nonzero;stroke:#fff;stroke-width:4.17px;"/><path d="M480.838,253.019l-131.913,124.344l-46.063,11.403l-0,-105.092l-298.836,-0l-0,262.06l298.836,0l-0,-72.133l43.128,-6.955c20.565,-2.933 35.665,-8.119 53.791,-18.22l56.177,-29.395l-0,126.703l160.679,0l-0,-252.843c-0,-82.757 -93.314,-82.985 -135.799,-39.872Zm-214.752,255.936l-225.283,0l0,-188.505l225.283,0l0,77.413l-44.186,10.931c-19.373,5.333 -31.19,24.894 -26.902,44.522l0.361,1.513c4.22,19.306 22.629,32.074 42.204,29.288l28.523,-4.595l0,29.433Z" style="fill:none;fill-rule:nonzero;stroke:#fff;stroke-width:4.17px;"/></g></svg>