<?xml version="1.0" encoding="UTF-8" standalone="no"?><!DOCTYPE svg PUBLIC "-//W3C//DTD SVG 1.1//EN" "http://www.w3.org/Graphics/SVG/1.1/DTD/svg11.dtd"><svg width="100%" height="100%" viewBox="0 0 425 538" version="1.1" xmlns="http://www.w3.org/2000/svg" xmlns:xlink="http://www.w3.org/1999/xlink" xml:space="preserve" xmlns:serif="http://www.serif.com/" style="fill-rule:evenodd;clip-rule:evenodd;stroke-linejoin:round;stroke-miterlimit:2;"><g><path d="M179.533,129.23c3.197,-2.988 4.377,-5.394 4.739,-6.283c0.678,-1.661 0.607,-2.594 0.45,-3.27c-0.229,-0.994 -1.001,-2.105 -2.22,-3.219c-1.519,-1.403 -3.757,-2.619 -6.3,-3.432c-6.075,-2.14 -13.653,-2.208 -20.855,-0.214c-4.586,1.268 -8.795,3.236 -12.513,5.89c-6.099,4.194 -10.637,9.227 -13.156,14.594c-2.303,4.751 -2.934,9.365 -1.9,13.782c1.08,4.63 3.935,8.672 8.483,12.07c4.282,3.329 10.01,5.881 16.692,7.463c5.091,-13.14 13.812,-25.38 26.58,-37.381Z" style="fill:none;fill-rule:nonzero;stroke:#fff;stroke-width:4.17px;"/><path d="M129.41,79.248c0.76,-0.384 1.549,-0.761 2.345,-1.138c4.231,-2.105 8.706,-3.801 13.646,-5.162c19.376,-5.341 38.678,-2.363 54.353,8.424c7.076,4.827 13.204,11 18.281,18.343c4.392,-12.172 9.848,-21.955 16.609,-29.771c5.306,-5.984 11.189,-10.683 17.938,-14.373c-5.969,-14.971 -16.649,-29.145 -32.592,-43.304c-4.632,-4.142 -8.618,-6.625 -12.189,-7.601c-2.973,-0.821 -5.61,-0.804 -8.863,0.095l-0.016,0c-3.352,0.924 -6.761,2.594 -10.712,4.52c-4.095,2.003 -8.735,4.271 -14.169,6.206c-9.288,3.286 -22.376,9.26 -32.025,19.191c-1.265,1.335 -2.475,2.696 -3.645,4.202c-2.196,2.868 -3.8,5.375 -5.067,7.884c-4.182,8.166 -5.661,17.718 -4.407,28.376c0.217,1.617 0.374,2.97 0.513,4.108Z" style="fill:none;fill-rule:nonzero;stroke:#fff;stroke-width:4.17px;"/><path d="M227.106,116.552c1.948,4.656 3.587,9.827 4.888,15.39c4.168,17.805 4.794,37.338 1.821,55.399c12.521,0.163 24.853,3.032 35.048,8.218c8.137,4.1 14.52,9.587 18.632,15.964c4.096,-2.713 7.857,-6 11.441,-9.998c8.306,-9.391 15.288,-22.239 21.34,-39.299c8.31,-22.88 6.02,-55.545 1.53,-76.542l-0.422,-2.192c-2.14,-9.142 -5.421,-15.818 -9.725,-19.756c-4.251,-3.964 -9.552,-5.453 -16.712,-4.734c-7.802,0.804 -14.599,2.029 -20.78,3.741c-2.323,0.634 -4.55,1.353 -6.667,2.191c-2.7,0.934 -5.216,2.055 -7.806,3.467c-5.688,3.014 -10.581,6.883 -14.976,11.863c-7.338,8.409 -12.948,19.955 -17.612,36.288Z" style="fill:none;fill-rule:nonzero;stroke:#fff;stroke-width:4.17px;"/><path d="M166.649,216.934c1.818,2.098 4.377,4.152 7.235,5.787c3.907,2.2 11.859,5.547 20.879,3.065c2.335,-0.643 4.349,-1.473 6.423,-2.577c7.45,-4.049 14.279,-16.358 17.815,-32.141c3.983,-17.557 3.84,-37.741 -0.375,-55.417c-4.333,-18.523 -13.377,-32.895 -26.177,-41.61c-12.797,-8.645 -27.896,-10.923 -43.65,-6.583c-3.808,1.062 -7.7,2.509 -11.56,4.324c-16.557,7.944 -26.725,19.61 -31.065,35.677c-3.343,12.395 -2.977,27.52 1.107,44.983c4.16,17.761 12.265,32.981 22.815,42.859c8.213,7.619 17.114,11.316 25.535,10.726c-2.641,-3.279 -4.333,-6.591 -5.144,-10.067c-2.871,-12.258 -3.347,-24.011 -1.44,-34.975c-8.058,-2.02 -15.001,-5.196 -20.678,-9.467c-7.249,-5.522 -12.075,-12.703 -13.96,-20.758c-1.844,-7.866 -0.816,-16.289 2.965,-24.361c3.639,-7.627 9.848,-14.637 17.945,-20.279c5.197,-3.578 10.779,-6.214 16.633,-7.823c7.179,-1.986 14.725,-2.423 21.829,-1.258c7.14,1.25 13.03,3.903 17.544,7.876c3.458,3.081 5.792,6.907 6.765,11.075c0.997,4.247 0.568,8.86 -1.207,12.987c-1.679,4.057 -4.431,7.858 -8.393,11.572c-11.792,11.119 -19.448,22.137 -23.406,33.734c-4.049,11.77 -4.455,24.216 -1.226,37.997c0.233,0.982 1.203,2.856 2.791,4.654Z" style="fill:none;fill-rule:nonzero;stroke:#fff;stroke-width:4.17px;"/><path d="M274.103,242.091c3.524,-4.965 5.118,-9.476 4.862,-13.798c0.007,-0.924 -0.092,-1.738 -0.312,-2.671c-0.375,-1.601 -1.053,-3.211 -2.011,-4.733c-2.591,-4.434 -7.444,-8.603 -13.692,-11.779c-9.06,-4.648 -20.914,-7.086 -32.561,-6.693c-4.998,16.666 -12.831,28.367 -22.88,34.06c-3.021,1.661 -6.068,2.919 -9.08,3.733c-7.774,2.148 -16.133,1.806 -24.17,-1.01c-1.294,-0.497 -2.523,-1.036 -3.702,-1.593c-8.16,11.839 -21.127,20.279 -38.584,25.089c-9.091,2.508 -19.144,3.911 -29.906,4.168c-2.611,4.349 -3.631,8.046 -2.961,10.889c0.607,2.627 3.043,5.274 6.837,7.481c4.158,2.465 10.065,4.546 17.118,6.001c13.759,2.919 29.036,2.979 35.958,2.312c5.216,-0.531 10.192,0.641 14.997,1.771l3.312,0.761c4.849,1.105 10.286,2.098 14.051,1.045c1.195,-0.317 2.294,-0.865 3.363,-1.626c3.253,-2.406 7.404,-4.083 12.667,-6.222l2.779,-1.139c5.669,-2.311 12.083,-4.914 19.049,-8.449c19.027,-9.554 33.702,-21.838 44.866,-37.597Z" style="fill:none;fill-rule:nonzero;stroke:#fff;stroke-width:4.17px;"/><path d="M128.583,248.178l0.023,-0c7.132,-1.969 13.129,-4.529 18.163,-7.705c-8.926,-1.609 -17.69,-6.325 -25.705,-13.875c-11.361,-10.649 -20.126,-25.809 -25.329,-43.861c-0.678,-2.132 -1.293,-4.366 -1.822,-6.617l-0.425,-1.823c-4.254,-19.097 -4.431,-36.268 -0.548,-51.034c0.066,-0.282 0.134,-0.583 0.209,-0.865c-14.602,-5.041 -27.085,-5.829 -39.089,-2.516c-5.452,1.506 -10.916,3.818 -17.205,7.276c-2.605,1.404 -5.177,2.868 -7.743,4.356c-5.924,3.424 -11.318,6.463 -17.302,8.877c-4.786,2.037 -6.344,4.125 -7.211,6.66c-0.965,2.705 -0.854,6.916 0.312,11.88c1.85,8.167 6.316,17.84 10.633,27.204c2.141,4.648 4.234,9.184 5.969,13.43c2.307,5.727 7.428,16.855 15.699,27.109c8.117,9.93 17.409,16.657 27.613,20.005c9.193,3.013 20.492,4.863 31.803,5.222c3.852,0.06 7.763,-0.077 11.657,-0.275c7.11,-0.538 13.918,-1.684 20.298,-3.448Z" style="fill:none;fill-rule:nonzero;stroke:#fff;stroke-width:4.17px;"/><path d="M51.071,105.244c14.448,-3.98 30.037,-2.901 47.596,3.322c4.286,-8.098 10.29,-15.219 17.903,-21.219c-0.401,-1.772 -0.584,-3.373 -0.844,-5.846l-0.49,-4.445c-1.372,-11.187 -0.263,-21.665 3.293,-31.174c-6.466,-1.027 -12.64,-1.661 -16.948,-2.072c-7.57,-0.59 -15.305,-0.984 -22.972,-1.138c-3.971,-0.086 -7.432,-0.078 -10.192,-0.095l-4.415,-0.026c-1.538,0.043 -2.712,0.171 -3.734,0.454c-2.661,0.822 -4.995,2.423 -7.272,5.05c-2.512,2.867 -4.775,6.984 -6.731,12.224c-4.08,10.76 -7.1,26.895 -8.989,47.918c-0.062,0.77 -0.117,1.515 -0.165,2.251c4.609,-2.174 9.067,-3.853 13.55,-5.085l0.41,-0.119Z" style="fill:none;fill-rule:nonzero;stroke:#fff;stroke-width:4.17px;"/><path d="M413.167,508.329c-15.948,-9.826 -33.826,-27.108 -51.645,-48.183c1.01,-3.167 1.526,-7.156 1.231,-11.975c-1.282,-20.869 55.169,-37.981 57.862,-99.338l-16.149,-1.463c0,-0 13.46,-43.827 -6.725,-81.807c-0,-0 -87.049,25.568 -62.042,161.473c-26.375,-36.174 -51.208,-77.056 -70.277,-110.791c-5.815,-10.28 -11.082,-19.859 -15.729,-28.47c-4.349,2.756 -8.855,5.401 -13.681,7.823c-2.842,1.447 -5.484,2.627 -8.113,3.801c10.987,20.416 25.61,46.574 42.507,74.223c18.607,30.439 39.913,62.59 62.152,90.727c22.293,28.135 45.316,52.3 68.593,66.817c5.807,3.596 13.202,1.413 16.522,-4.896c3.32,-6.299 1.301,-14.337 -4.506,-17.941Z" style="fill:none;fill-rule:nonzero;stroke:#fff;stroke-width:4.17px;"/></g></svg>